<svg width="309" height="314" viewBox="0 0 309 314" fill="none" xmlns="http://www.w3.org/2000/svg">
<path d="M83.2893 71L150.464 3.82484C152.417 1.87222 155.583 1.87222 157.536 3.82484L221.175 67.4645C223.128 69.4171 223.128 72.5829 221.175 74.5355L157.536 138.175C155.583 140.128 152.417 140.128 150.464 138.175L83.2893 71Z" fill="#FC0707"/>
<path d="M202.355 190.066C182.829 170.54 182.829 138.882 202.355 119.355L234.175 87.5355C236.128 85.5829 239.294 85.5829 241.246 87.5355L304.886 151.175C306.838 153.128 306.838 156.294 304.886 158.246L241.246 221.886C239.294 223.838 236.128 223.838 234.175 221.886L202.355 190.066Z" fill="#FDE408"/>
<path d="M0 158.711L67.1751 91.5355C69.1278 89.5829 72.2936 89.5829 74.2462 91.5355L137.886 155.175C139.838 157.128 139.838 160.294 137.886 162.246L74.2462 225.886C72.2936 227.838 69.1278 227.838 67.1751 225.886L0 158.711Z" fill="#45FF03"/>
<path d="M83.7107 242.421L150.886 175.246C152.838 173.294 156.004 173.294 157.957 175.246L221.597 238.886C223.549 240.838 223.549 244.004 221.597 245.957L157.957 309.596C156.004 311.549 152.838 311.549 150.886 309.596L83.7107 242.421Z" fill="#0A6BFE"/>
</svg>
